<?xml version="1.0" encoding="utf-8"?>
<!-- Generator: Adobe Illustrator 13.0.0, SVG Export Plug-In . SVG Version: 6.00 Build 14948)  -->
<!DOCTYPE svg PUBLIC "-//W3C//DTD SVG 1.1//EN" "http://www.w3.org/Graphics/SVG/1.1/DTD/svg11.dtd">
<svg version="1.1" id="Layer_1" xmlns="http://www.w3.org/2000/svg" xmlns:xlink="http://www.w3.org/1999/xlink" x="0px" y="0px"
	 width="80.075px" height="80.076px" viewBox="0 0 80.075 80.076" enable-background="new 0 0 80.075 80.076" xml:space="preserve">
<circle fill="#2B96DE" cx="39.813" cy="40.114" r="40.038"/>
<g>
	<path fill="#FFFFFF" d="M50.663,47.356c-0.575-1.135-1.257-2.279-2.052-3.441c-0.569-0.834-1.181-1.643-1.817-2.44
		c-0.263-0.323-0.155-0.727,0.044-0.924c0.198-0.201,0.395-0.403,0.594-0.604c2.729-2.781,5.55-5.66,7.715-8.767
		c2.299-3.307,3.573-6.444,3.897-9.672c0.031-0.323-0.117-0.669-0.38-0.869c-0.171-0.129-0.379-0.196-0.589-0.196
		c-0.113,0-0.233,0.021-0.347,0.063c-2.098,0.801-4.227,1.413-6.172,1.864c-0.396,0.092-0.717,0.387-0.848,0.742
		c-1.417,3.88-5.036,7.577-8.83,11.447c-0.153,0.144-0.369,0.333-0.714,0.333c-0.348,0-0.557-0.183-0.712-0.333
		c-3.797-3.871-7.415-7.553-8.83-11.435c-0.134-0.354-0.458-0.648-0.85-0.739c-1.948-0.454-4.078-1.116-6.175-1.917
		c-0.111-0.044-0.23-0.065-0.345-0.065c-0.214,0-0.418,0.07-0.592,0.2c-0.268,0.203-0.411,0.533-0.377,0.866
		c0.322,3.227,1.598,6.402,3.898,9.709c2.164,3.108,4.988,5.987,7.716,8.768c5.022,5.125,9.772,9.97,10.189,15.581
		c0.037,0.507,0.458,0.899,0.967,0.899h5.905c0.265,0,0.521-0.107,0.704-0.303c0.182-0.193,0.279-0.451,0.265-0.717
		c-0.049-1.057-0.201-2.114-0.451-3.179v-0.002c-0.003-0.031-0.01-0.063-0.01-0.096c0-0.216,0.167-0.394,0.389-0.394
		c0.015,0,0.031,0.005,0.054,0.006c4.818,0.705,7.867,1.835,7.872,3.077v0.003c0,1.168-2.743,2.936-7.196,4.23l-0.003,0.001
		c-0.394,0.113-0.683,0.47-0.683,0.896c0,0.513,0.424,0.932,0.951,0.932c0.073,0,0.142-0.007,0.21-0.023
		c5.988-1.386,9.957-3.712,9.957-6.338C64.017,51.398,58.651,48.61,50.663,47.356z"/>
	<path fill="#FFFFFF" d="M34.826,44.312c-0.122-0.127-0.364-0.297-0.692-0.297c-0.441,0-0.703,0.285-0.799,0.435
		c-0.645,0.984-1.207,1.95-1.693,2.91c-7.982,1.258-13.337,4.042-13.337,7.161c0,2.628,3.94,4.95,9.938,6.336c0,0,0.01,0,0.012,0
		c0.069,0.016,0.142,0.024,0.22,0.024c0.526,0,0.949-0.418,0.949-0.931c0-0.424-0.291-0.778-0.683-0.892l-0.003-0.006
		c-4.456-1.295-7.195-3.062-7.195-4.23v-0.004c0.001-1.241,3.046-2.366,7.854-3.074c0.018-0.003,0.036-0.003,0.05-0.003
		c0.221,0,0.391,0.179,0.391,0.395c0,0.034-0.003,0.067-0.016,0.098l0.005,0.005c-0.247,1.057-0.395,2.11-0.45,3.163
		c-0.013,0.266,0.085,0.528,0.268,0.721c0.182,0.194,0.44,0.303,0.705,0.303h5.905c0.51,0,0.937-0.398,0.974-0.901
		c0.129-1.73,0.667-3.462,1.646-5.28c0.342-0.631,0.077-1.223-0.12-1.474C37.786,47.506,36.596,46.157,34.826,44.312z"/>
	<path fill="#FFFFFF" d="M44.466,23.423c-0.377,0-1.45,0.11-3.297,0.11h-0.017c-1.847,0-2.922-0.11-3.296-0.11
		c-0.458,0-0.895,0.372-0.895,0.897c0,0.154,0.034,0.263,0.074,0.361c0.241,0.655,1.364,3.016,3.445,5.041
		c0.232,0.227,0.5,0.27,0.681,0.27h0.001c0.182,0,0.449-0.042,0.68-0.27c2.082-2.025,3.203-4.386,3.445-5.041
		c0.037-0.099,0.072-0.207,0.072-0.361C45.36,23.795,44.922,23.423,44.466,23.423z"/>
</g>
</svg>
